<svg xmlns="http://www.w3.org/2000/svg" viewBox="0 0 300 300" width="300" height="300" role="img" aria-label="Paper abstract">
  <rect width="300" height="300" fill="#ECE3D0"></rect>
  <g>
    <rect x="50" y="70" width="180" height="170" fill="#F4EEE1" stroke="#0E1116" stroke-width="2" transform="rotate(-4 140 155)"></rect>
    <rect x="70" y="60" width="180" height="170" fill="#FBF7EC" stroke="#0E1116" stroke-width="2" transform="rotate(3 160 145)"></rect>
  </g>
  <g transform="rotate(3 160 145)">
    <rect x="88" y="80" width="120" height="6" fill="#0E1116"></rect>
    <rect x="88" y="96" width="145" height="3" fill="#5A6170"></rect>
    <rect x="88" y="104" width="130" height="3" fill="#5A6170"></rect>
    <rect x="88" y="112" width="140" height="3" fill="#5A6170"></rect>
    <rect x="88" y="130" width="50" height="14" rx="3" fill="#2E4BE0"></rect>
    <rect x="142" y="130" width="34" height="14" rx="3" fill="#F2542D"></rect>
    <rect x="88" y="158" width="145" height="3" fill="#5A6170"></rect>
    <rect x="88" y="166" width="135" height="3" fill="#5A6170"></rect>
    <rect x="88" y="174" width="120" height="3" fill="#5A6170"></rect>
    <rect x="88" y="194" width="65" height="3" fill="#5A6170"></rect>
  </g>
</svg>
